# xmcd CD database file
#
# Track frame offsets:
#	150
#	18718
#	36258
#	59050
#	75353
#
# Disc length: 1251 seconds
#
# Revision: 3
# Processed by: cddbd v1.5.1PL2 Copyright (c) Steve Scherf et al.
# Submitted via: CDex 1.51
#
DISCID=3b04e105
DTITLE=TOKIO - Mr.Traveling Man
DYEAR=2006
DGENRE=JPop
TTITLE0=Mr.Traveling Man
TTITLE1=夜を吹き飛ばせ
TTITLE2=Love is here
TTITLE3=明日を目指して！ (Piano version)
TTITLE4=Mr.Traveling Man (Backing Track)
EXTD=YEAR: 2006
EXTT0=
EXTT1=
EXTT2=
EXTT3=
EXTT4=
PLAYORDER=
